<?xml version="1.0" encoding="utf-8"?><!-- Uploaded to: SVG Repo, www.svgrepo.com, Generator: SVG Repo Mixer Tools -->
<svg fill="#000000" width="800px" height="800px" viewBox="0 0 24 24" id="add-user-left-9" data-name="Line Color" xmlns="http://www.w3.org/2000/svg" class="icon line-color"><path id="secondary" d="M3,5H7M5,7V3" style="fill: none; stroke: rgb(44, 169, 188); stroke-linecap: round; stroke-linejoin: round; stroke-width: 2;"></path><path id="primary" d="M11,3.34A5.47,5.47,0,0,1,12.27,3,6,6,0,0,1,19,9a5.94,5.94,0,0,1-1.34,3.77,1,1,0,0,0,.28,1.45A7,7,0,0,1,21,20a1,1,0,0,1-1,1H6a1,1,0,0,1-1-1,7,7,0,0,1,3.06-5.78,1,1,0,0,0,.28-1.45,5.71,5.71,0,0,1-1-1.77" style="fill: none; stroke: rgb(0, 0, 0); stroke-linecap: round; stroke-linejoin: round; stroke-width: 2;"></path></svg>